<?xml version="1.0" encoding="utf-8"?>
<!-- Generator: Adobe Illustrator 26.5.0, SVG Export Plug-In . SVG Version: 6.00 Build 0)  -->
<svg version="1.1" id="CARLA_Logo" xmlns="http://www.w3.org/2000/svg" xmlns:xlink="http://www.w3.org/1999/xlink" x="0px" y="0px"
	 viewBox="0 0 2000 2000" style="enable-background:new 0 0 2000 2000;fill:white;" xml:space="preserve">
<g>
	<g>
		<path d="M1835.82,1476.29c-71.72-124.15-142.98-248.57-215.42-372.29c-13.64-23.3-19.75-45.43-17.66-73.13
			c8.04-106.72-16.16-207.57-63.48-302.95c-62.4-125.8-159.89-215.63-285.65-275.96c-7.56-3.62-13.88-7.9-18.29-15.58
			c-70.92-123.42-142.07-246.71-213.17-370.03c-6.86-11.9-13.81-23.76-21.28-36.6c-2.42,3.89-4.08,6.42-5.6,9.03
			C918.92,170.92,842.54,303.06,766.34,435.3c-4.13,7.17-9.29,12-16.85,15.55c-70.16,32.93-133.39,75.98-186.09,133.07
			c-123.3,133.58-178.03,291.31-163.56,472.71c0.7,8.74-1.13,15.98-5.38,23.33c-75.86,131.24-151.63,262.54-227.31,393.89
			c-1.78,3.08-4.87,5.83-4.26,10.68c3.77,0,7.48,0,11.18,0c151.67,0,303.34,0.04,455-0.1c8.26-0.01,15.13,2.06,21.96,6.83
			c111.6,78.12,235.01,116.79,371.72,111.42c119.12-4.68,227.68-40.47,325.02-109.52c8.52-6.04,17.08-8.82,27.57-8.8
			c150.64,0.24,301.28,0.17,451.92,0.15c4.45,0,8.9-0.22,13.35-0.33c0-0.69,0-1.37,0-2.06
			C1837.4,1481.53,1837.07,1478.44,1835.82,1476.29z M1392.35,1459.16c5.91-5.51,11.14-10.47,16.47-15.33
			c31.55-28.75,59.22-60.9,84.32-95.39c4.66-6.4,2.98-8.58-3.03-11.84c-14.43-7.82-28.68-16-42.61-24.68
			c-5.99-3.73-8.91-2.68-13.07,2.75c-39.65,51.84-85.56,97.24-139.88,133.73c-70.99,47.69-149.17,75.27-234.28,83.63
			c-101.34,9.96-198.81-3.51-291.09-47.9c-78.41-37.71-142.04-93.62-195.9-161.28c-11.95-15.01-11.92-15.05-28.95-5.19
			c-11.55,6.68-22.88,13.78-34.69,19.96c-5.69,2.98-5.23,5.01-1.92,9.72c28.98,41.11,62.85,77.73,101.79,111.64
			c-135.53,0-269.92,0-405.46,0c67.44-116.86,134.54-233.14,202.71-351.27c8.85,44.75,20.89,86.22,37.85,126.17
			c2.94,6.92,6.37,13.64,9.14,20.63c1.64,4.14,3.35,4.98,7.34,2.61c15.88-9.44,31.8-18.83,47.97-27.74
			c5.04-2.77,4.24-5.31,2.46-9.58c-21.53-51.73-36.97-105.18-43.9-160.87c-11.52-92.61,1.61-181.86,39.48-267.01
			c50.78-114.18,127.44-205.51,239.16-264.78c60.5-32.1,125.23-51.08,192.89-60.45c13.99-1.94,14.02-1.68,14.02-15.45
			c0-14.76-0.47-29.54,0.19-44.27c0.35-7.67-2.28-8.96-9.21-8.31c-45.19,4.27-89.28,13.64-132.43,27.68
			c-4.08,1.33-7.93,4.02-13.46,2.93c67.38-116.76,134.51-233.09,202.47-350.85c67.84,117.55,134.92,233.79,202.36,350.65
			c-5.36,1.52-9.12-1.37-13-2.64c-43.12-14.11-87.23-23.28-132.38-27.8c-7.8-0.78-10.04,1.2-9.69,9.14
			c0.68,15.07,1.04,30.26-0.1,45.27c-0.77,10.18,3.37,12.51,12.19,13.54c35.1,4.11,69.42,11.99,103.16,22.49
			c133.66,41.58,233.16,125.21,302.47,245.93c45.88,79.9,71.57,165.56,71.96,258.1c0.33,77.47-16.83,151.49-46.38,222.74
			c-3.6,8.69-2.09,12.29,5.8,16.37c13.97,7.21,27.53,15.25,40.91,23.52c5.68,3.51,7.83,2.84,10.71-3.36
			c21.09-45.49,35.81-92.97,45.85-144.81c68.23,118.21,135.32,234.44,202.94,351.59
			C1662.32,1459.16,1528.09,1459.16,1392.35,1459.16z"/>
		<path d="M1838.89,1796.79c-21.22-25.6-45.48-48.32-68.35-72.35c-2.79-2.93-6.63-3.1-10.51-3.09c-32.58,0.06-65.16,0.12-97.74-0.05
			c-5.61-0.03-9.75,1.92-13.54,5.91c-20.79,21.86-41.68,43.61-62.61,65.34c-3.24,3.36-5.05,6.95-5.04,11.83
			c0.12,52.16,0.13,104.31-0.02,156.47c-0.01,4.91,1.35,6.5,6.35,6.44c21.27-0.24,42.54-0.31,63.8,0.03
			c5.94,0.09,6.68-2.49,6.56-7.38c-0.26-10.63,0.22-21.28-0.2-31.9c-0.24-6.02,1.21-8.43,7.83-8.36
			c30.18,0.33,60.37,0.28,90.56,0.03c5.89-0.05,7.47,1.85,7.57,7.61c0.22,12.93-1.61,25.93,0.96,38.8c2.77,3.12,6.41,1.46,9.59,1.51
			c22.17,0.33,44.34,0.42,66.52,0.59c0-56.98,0-113.96,0-170.95C1840.18,1796.57,1839.6,1796.42,1838.89,1796.79z M1763.3,1849.45
			c0.05,5.24-4.29,3.3-6.85,3.33c-15.4,0.17-30.81,0.09-46.21,0.09c-15.4,0-30.81-0.24-46.21,0.13c-5.43,0.13-6.03-1.77-6.93-6.79
			c-4.81-27.01,16.02-38.24,32.22-51.02c10.36-8.17,42.65-1.32,52.53,8.06c3.97,3.77,7.33,8.33,11.72,11.49
			C1766.22,1823.85,1763.18,1837.05,1763.3,1849.45z"/>
		<path d="M1139.65,1868.36c7.46-6.55,14.35-13.76,21.62-20.53c4.04-3.76,5.81-8.17,5.76-13.69c-0.15-16.12-0.11-32.25-0.02-48.37
			c0.03-5.84-2.08-10.4-6.25-14.53c-13.89-13.75-27.63-27.66-41.23-41.69c-3.62-3.74-7.67-5.43-12.74-5.43
			c-64.82,0.02-129.64,0.03-194.47-0.01c-6.69,0-9.99,1.52-9.86,9.81c0.59,37.04,0.26,74.1,0.26,111.15
			c0,37.74,0.03,75.48-0.04,113.21c-0.01,5.03-0.63,9.25,7.04,9.07c21.25-0.48,42.53-0.33,63.79-0.05c5.49,0.07,7.03-1.73,6.9-7.06
			c-0.34-13.03,0.49-26.11-0.32-39.09c-0.55-8.93,2.68-10.86,10.94-10.44c20.52,1.07,41.06,1.09,61.62,0.01
			c11.6-0.61,20.72,4.64,28.78,13.25c9.98,10.67,6.24,23.18,6.43,35.13c0.1,6.11,1.42,8.37,8,8.24c20.91-0.42,41.85-0.43,62.76,0
			c6.73,0.14,8.05-2.36,7.81-8.36c-0.48-11.96-1.74-23.96-0.08-35.91c1.81-12.98-2.07-23.29-12.7-31.37
			c-5.14-3.91-9.09-9.34-13.98-13.62C1135.59,1874.51,1135.45,1872.05,1139.65,1868.36z M1086.1,1822.04
			c-3.97,11.3-16.08,20.39-28.07,20.48c-23.61,0.17-47.21-0.08-70.82,0.15c-5.16,0.05-7.26-1.1-7.05-6.75
			c0.43-11.62,0.39-23.27,0.02-34.9c-0.18-5.53,1.86-7.05,7.1-6.94c13.68,0.28,27.37,0.09,41.05,0.09c12.66,0,25.32-0.12,37.97,0.03
			C1082.34,1794.39,1091.34,1807.14,1086.1,1822.04z"/>
		<path d="M788.81,1881.94c0-25.38-0.13-50.77,0.09-76.15c0.05-6.17-1.39-10.89-5.94-15.51c-20.44-20.76-40.49-41.89-60.58-62.99
			c-4.07-4.27-8.69-6-14.59-5.98c-31.89,0.06-63.77-0.05-95.66-0.34c-5.91-0.05-10.45,1.62-14.56,5.94
			c-20.55,21.61-41.24,43.09-61.98,64.52c-4.02,4.15-6.27,8.7-6.27,14.59c0.08,51.46,0.13,102.91-0.07,154.37
			c-0.02,5.58,1.93,6.95,7.11,6.89c21.26-0.22,42.52-0.24,63.78,0.01c5.45,0.06,7.07-1.8,6.89-7.12
			c-0.36-10.97,0.17-21.96-0.22-32.92c-0.21-5.67,1.33-7.62,7.32-7.56c30.52,0.29,61.04,0.28,91.56,0c5.61-0.05,6.86,1.83,6.69,7.01
			c-0.35,10.97,0.16,21.96-0.22,32.92c-0.19,5.52,1.01,7.82,7.19,7.71c20.57-0.38,41.16-0.42,61.72,0.02
			c6.62,0.14,7.94-2.09,7.87-8.22C788.62,1933.4,788.81,1907.67,788.81,1881.94z M712.4,1848.37c-0.1,5.93-3.88,4.43-6.96,4.45
			l-46.26,0.04c-15.42,0-30.85-0.26-46.26,0.14c-5.55,0.14-6.01-1.97-6.9-6.87c-4.92-27.09,15.98-38.2,32.28-51.01
			c9.91-7.79,42.44-1.29,51.71,7.5c3.48,3.3,6.36,7.43,10.28,10.04C713.7,1821.58,712.63,1834.92,712.4,1848.37z"/>
		<path d="M280.64,1795.19c10.98,0,22.08,1.09,32.9-0.22c23.6-2.88,43.18,2.35,56.38,23.61c3.19,5.14,5.67,3.72,9.31-0.12
			c16.05-16.91,32.31-33.62,48.82-50.08c3.91-3.9,3.55-6.02-0.24-9.49c-11.1-10.19-22.02-20.58-32.74-31.17
			c-3.73-3.68-7.75-4.91-12.84-5.04c-49.36-1.22-98.72-0.71-148.09,0c-5.69,0.08-9.65,2.49-13.41,6.32
			c-17.55,17.85-34.98,35.85-52.98,53.23c-5.78,5.58-7.61,11.4-7.41,19.08c0.42,16.46,0.03,32.93,0.16,49.4
			c0.13,17.11-3.56,35.65,1.86,50.92c5.46,15.38,22.45,25.22,34.59,37.28c10.16,10.09,19.09,21.55,31.21,29.58
			c0.14,0.58,0.22,1.17,0.25,1.77c52.85,0,105.7,0,158.54,0c0.48-0.45,0.6-0.99,0.36-1.6c16.38-10.46,27.24-26.73,41.47-39.45
			c2.73-2.44,0.74-4.15-1.01-5.89c-17.98-17.86-35.94-35.73-54.1-53.79c-4.9,5.41-10.17,10.38-14.4,16.11
			c-6.33,8.57-14.22,11.5-24.79,11.01c-16.43-0.77-32.94-0.73-49.38-0.07c-29.89,1.19-44-12.03-44.01-42.22
			c0-5.83,0.08-11.67-0.14-17.49C239.93,1810.45,254.4,1795.19,280.64,1795.19z"/>
		<path d="M1477.86,1892.11c-35.99,0.52-71.99-0.19-107.97,0.49c-9.56,0.18-11.02-2.83-10.95-11.44c0.42-49.03,0-98.07,0.41-147.1
			c0.07-7.86-2.05-9.65-9.61-9.43c-19.52,0.57-39.08,0.55-58.61,0.01c-7.53-0.21-9.87,1.55-9.77,9.49
			c0.46,37.03,0.21,74.06,0.21,111.1c0,37.72,0.04,75.44-0.05,113.16c-0.01,5.14-0.41,9,7.14,8.97
			c64.1-0.29,128.21-0.24,192.31-0.05c6.04,0.02,7.42-2.11,7.33-7.73c-0.31-18.85-0.55-37.73,0.08-56.57
			C1488.66,1894.66,1486.65,1891.98,1477.86,1892.11z"/>
		<path d="M1392.75,900.61c-15.91-60.01-42.88-114.31-83.55-161.78c-33.88-39.53-73.34-71.67-119.11-96.33
			c-42.51-22.91-87.9-37.13-135.46-43.84c-24.05-3.4-48.48-3.42-72.93-2.73c-33.6,0.96-66.48,6.12-98.3,15.86
			c-49.78,15.24-95.27,39.04-136.36,71.7c-36.88,29.32-67.39,63.98-91.57,103.9c-36.05,59.55-57.38,124.03-59.05,194.26
			c-0.02,11.66-0.04,23.32-0.06,34.97c0,0,0,0,0,0c1.05,11.57,1.05,23.17,2.68,34.74c5.18,36.87,13.97,72.7,29.3,106.74
			c53.8,119.43,143.54,197.35,269.63,233.1c22.28,6.32,45.21,10.85,68.11,12.32c22.3,1.43,44.89,0.7,67.47-0.97
			c36.93-2.73,72.35-10.59,106.89-23.2c52.75-19.24,99.51-48.43,139.72-87.49c37.81-36.73,67.77-79.1,89.51-127.49
			c20.29-45.15,31.26-92.24,34.8-141.34c2.87-15.93,2.87-31.87,0-47.8C1402.78,950.02,1399.22,925.01,1392.75,900.61z
			 M1379.66,1035.67c-4.43,47.75-16.58,93.13-38.82,135.11c-61.73,116.51-157.46,187.26-288.66,206.38
			c-201.74,29.4-391.48-111.47-426.73-309.96c-7.18-40.45-9.03-81.12-2.84-121.25c12.51-81.08,47.2-152.01,104.33-211.64
			c23.97-25.02,51.17-45.62,80.59-63.56c38.3-23.36,79.86-38.23,123.73-46.45c16.64-3.12,33.75-3.79,50.64-5.58
			c12.42,0,24.83,0,37.25,0c53.09,2.66,103.54,15.97,151.01,39.53c48.16,23.9,88.8,57.48,123.53,98.66
			c39.19,46.46,64.82,99.53,78.57,158.27C1381.54,954.74,1383.44,994.88,1379.66,1035.67z"/>
		<path d="M1316.01,1046.4c-54.21,0.58-108.43,0.42-162.64,0.1c-6.99-0.04-9.93,2.1-12.42,8.63
			c-27.36,71.74-107.33,110.65-182.49,89.17c-73.16-20.91-119.92-96.83-105.8-171.76c12.28-65.12,66.25-116.12,129.77-122.63
			c70.27-7.19,132.95,30.3,158.53,95.29c2.47,6.28,5.56,7.79,11.89,7.7c27.45-0.38,54.9-0.16,82.35-0.16
			c27.79,0,55.59-0.23,83.38,0.17c6.65,0.09,8.49-1.75,7.12-8.05c-1.82-8.36-2.84-16.91-4.87-25.22
			c-41.36-169.09-211.46-277.71-382.39-244.28c-179.59,35.13-296.67,207.68-261.31,386.88c47.79,242.16,324.6,343.25,516.38,205.19
			c71.65-51.58,115.61-122.15,132.07-209.39C1327.18,1049.54,1326.13,1046.29,1316.01,1046.4z"/>
	</g>
</g>
</svg>
